/* XPM */
static char * 034_32x32_xpm[] = {
"32 32 257 2",
"  	c None",
". 	c #000000",
"+ 	c #800000",
"@ 	c #008000",
"# 	c #808000",
"$ 	c #000080",
"% 	c #800080",
"& 	c #008080",
"* 	c #C0C0C0",
"= 	c #C0DCC0",
"- 	c #A6CAF0",
"; 	c #C8ACB3",
"> 	c #BAA0A7",
", 	c #B3888C",
"' 	c #429AA7",
") 	c #2F7E88",
"! 	c #1A5F67",
"~ 	c #00373C",
"{ 	c #FF33FF",
"] 	c #FF6600",
"^ 	c #FF0000",
"/ 	c #00FF00",
"( 	c #FF6633",
"_ 	c #0000FF",
": 	c #FF00FF",
"< 	c #00FFFF",
"[ 	c #FF6666",
"} 	c #FF6699",
"| 	c #FF66CC",
"1 	c #FF66FF",
"2 	c #FF9900",
"3 	c #FF9933",
"4 	c #FF9966",
"5 	c #FF9999",
"6 	c #FF99CC",
"7 	c #FF99FF",
"8 	c #FFCC00",
"9 	c #FFCC33",
"0 	c #FFCC66",
"a 	c #FFCC99",
"b 	c #FFCCCC",
"c 	c #FFCCFF",
"d 	c #FFFF33",
"e 	c #FFFF66",
"f 	c #FFFF99",
"g 	c #FFFFCC",
"h 	c #161616",
"i 	c #171717",
"j 	c #181818",
"k 	c #191919",
"l 	c #1A1A1A",
"m 	c #1B1B1B",
"n 	c #1C1C1C",
"o 	c #1D1D1D",
"p 	c #1E1E1E",
"q 	c #1F1F1F",
"r 	c #202020",
"s 	c #212121",
"t 	c #222222",
"u 	c #232323",
"v 	c #242424",
"w 	c #252525",
"x 	c #000033",
"y 	c #000066",
"z 	c #000099",
"A 	c #0000CC",
"B 	c #003300",
"C 	c #003333",
"D 	c #003366",
"E 	c #003399",
"F 	c #0033CC",
"G 	c #0033FF",
"H 	c #006600",
"I 	c #006633",
"J 	c #006666",
"K 	c #006699",
"L 	c #0066CC",
"M 	c #0066FF",
"N 	c #009900",
"O 	c #009933",
"P 	c #009966",
"Q 	c #009999",
"R 	c #0099CC",
"S 	c #0099FF",
"T 	c #00CC00",
"U 	c #00CC33",
"V 	c #00CC66",
"W 	c #00CC99",
"X 	c #00CCCC",
"Y 	c #00CCFF",
"Z 	c #00FF33",
"` 	c #00FF66",
" .	c #00FF99",
"..	c #00FFCC",
"+.	c #330000",
"@.	c #330033",
"#.	c #330066",
"$.	c #330099",
"%.	c #3300CC",
"&.	c #3300FF",
"*.	c #333300",
"=.	c #333333",
"-.	c #333366",
";.	c #333399",
">.	c #3333CC",
",.	c #3333FF",
"'.	c #336600",
").	c #336633",
"!.	c #336666",
"~.	c #336699",
"{.	c #3366CC",
"].	c #3366FF",
"^.	c #339900",
"/.	c #339933",
"(.	c #339966",
"_.	c #339999",
":.	c #3399CC",
"<.	c #3399FF",
"[.	c #33CC00",
"}.	c #33CC33",
"|.	c #33CC66",
"1.	c #33CC99",
"2.	c #33CCCC",
"3.	c #33CCFF",
"4.	c #33FF00",
"5.	c #33FF33",
"6.	c #33FF66",
"7.	c #33FF99",
"8.	c #33FFCC",
"9.	c #33FFFF",
"0.	c #660000",
"a.	c #660033",
"b.	c #660066",
"c.	c #660099",
"d.	c #6600CC",
"e.	c #6600FF",
"f.	c #663300",
"g.	c #663333",
"h.	c #663366",
"i.	c #663399",
"j.	c #6633CC",
"k.	c #6633FF",
"l.	c #666600",
"m.	c #666633",
"n.	c #666666",
"o.	c #666699",
"p.	c #6666CC",
"q.	c #6666FF",
"r.	c #669900",
"s.	c #669933",
"t.	c #669966",
"u.	c #669999",
"v.	c #6699CC",
"w.	c #6699FF",
"x.	c #66CC00",
"y.	c #66CC33",
"z.	c #66CC66",
"A.	c #66CC99",
"B.	c #66CCCC",
"C.	c #66CCFF",
"D.	c #66FF00",
"E.	c #66FF33",
"F.	c #66FF66",
"G.	c #66FF99",
"H.	c #66FFCC",
"I.	c #66FFFF",
"J.	c #990000",
"K.	c #990033",
"L.	c #990066",
"M.	c #990099",
"N.	c #9900CC",
"O.	c #9900FF",
"P.	c #993300",
"Q.	c #993333",
"R.	c #993366",
"S.	c #993399",
"T.	c #9933CC",
"U.	c #9933FF",
"V.	c #996600",
"W.	c #996633",
"X.	c #996666",
"Y.	c #996699",
"Z.	c #9966CC",
"`.	c #9966FF",
" +	c #999900",
".+	c #999933",
"++	c #999966",
"@+	c #999999",
"#+	c #9999CC",
"$+	c #9999FF",
"%+	c #99CC00",
"&+	c #99CC33",
"*+	c #99CC66",
"=+	c #99CC99",
"-+	c #99CCCC",
";+	c #99CCFF",
">+	c #99FF00",
",+	c #99FF33",
"'+	c #99FF66",
")+	c #99FF99",
"!+	c #99FFCC",
"~+	c #99FFFF",
"{+	c #CC0000",
"]+	c #CC0033",
"^+	c #CC0066",
"/+	c #CC0099",
"(+	c #CC00CC",
"_+	c #CC00FF",
":+	c #CC3300",
"<+	c #CC3333",
"[+	c #CC3366",
"}+	c #CC3399",
"|+	c #CC33CC",
"1+	c #CC33FF",
"2+	c #CC6600",
"3+	c #CC6633",
"4+	c #CC6666",
"5+	c #CC6699",
"6+	c #CC66CC",
"7+	c #CC66FF",
"8+	c #CC9900",
"9+	c #CC9933",
"0+	c #CC9966",
"a+	c #CC9999",
"b+	c #CC99CC",
"c+	c #CC99FF",
"d+	c #CCCC00",
"e+	c #CCCC33",
"f+	c #CCCC66",
"g+	c #CCCC99",
"h+	c #CCCCCC",
"i+	c #CCCCFF",
"j+	c #CCFF00",
"k+	c #CCFF33",
"l+	c #CCFF66",
"m+	c #CCFF99",
"n+	c #CCFFCC",
"o+	c #CCFFFF",
"p+	c #FF0033",
"q+	c #FF0066",
"r+	c #FF0099",
"s+	c #FF00CC",
"t+	c #FF3300",
"u+	c #FF3333",
"v+	c #FF3366",
"w+	c #FF3399",
"x+	c #FF33CC",
"y+	c #FFFBF0",
"z+	c #A0A0A4",
"A+	c #808080",
"B+	c #FF0000",
"C+	c #00FF00",
"D+	c #FFFF00",
"E+	c #0000FF",
"F+	c #FF00FF",
"G+	c #00FFFF",
"H+	c #FFFFFF",
"                    . . .               . . .                   ",
"                . . .     .           .     . . .               ",
"            . . .         .         .           . .             ",
"        . .                 .                     . .           ",
"              . . . .                   . . . .       =.n.      ",
"          . . h+H+H+h+. .           . . h+H+h+h+. .             ",
"        . H+H+H+H+H+H+h+@+.       . H+H+H+H+H+H+h+@+.           ",
"      . h+H+H+H+H+H+H+H+h+@+.   . h+H+H+H+H+H+H+h+h+@+.         ",
"      . H+H+H+H+H+H+H+H+h+h+.   . H+H+H+H+H+H+H+H+h+h+.         ",
"    . h+H+H+H+H+H+H+H+H+H+@+@+. H+H+H+H+H+H+H+H+H+H+@+@+.       ",
"    . h+H+H+H+H+. . H+H+h+@+@+. H+H+H+H+. . H+H+H+h+@+@+.       ",
"    . h+H+H+H+H+. . H+h+h+@+@+. h+H+H+H+. . H+H+h+h+@+@+.       ",
"    . H+h+H+H+H+H+H+H+h+h+@+=.. H+H+H+H+H+H+H+H+h+h+@+=..       ",
"      . H+h+H+H+H+h+h+h+@+@+.   . h+h+H+H+H+h+h+h+@+@+.         ",
"      . @+h+h+H+h+h+h+@+@+n..   . @+h+h+h+H+h+h+@+@+=..         ",
"        . @+@+@+h+@+n.@+n..       . @+h+h+@+@+n.@+n..           ",
"          . . @+@+@+n.. .           . . @+@+@+n.. .             ",
"              . . . .                   . . . .                 ",
"  .                                                         .   ",
". H+.                                                   . . H+. ",
". h+n.. . .                                     =.. . . h+n.H+. ",
". n.n.H+H+n.. .                       n.. . . n.h+H+n.H+H+=.n.. ",
". H+=.H+h+n.H+h+=.. . . . . . . . . =.h+H+n.H+H+h+h+=.H+n.n.H+. ",
"  . n.n.h+=.H+h+H+H+n.H+H+H+H+H+n.H+H+H+@+n.H+h+h+@+n.n.H+=..   ",
"  . n.H+=.n.H+h+h+@+n.H+h+h+h+@+n.H+h+h+@+n.H+h+@+n.=.H+h+n..   ",
"    . H+H+=.n.n.@+n.n.H+h+h+@+@+=.H+h+@+@+=.n.=.n.H+n.H+h+n.    ",
"    . H+h+n.H+H+n.n.=.n.n.n.n.=.n.n.=.n.n.n.H+H+H+h+n.H+h+.     ",
"      . h+n.H+h+H+H+n.H+H+H+H+H+n.H+H+H+H+=.H+h+h+@+n.h+.       ",
"        . . H+h+h+@+n.H+h+h+h+@+n.H+h+h+@+n.H+h+@+@+n..         ",
"            . . @+@+=.H+h+h+@+@+=.H+h+@+@+n.h+h+. . .           ",
"                n.. . . h+h+@+@+n.H+h+@+. . . n.                ",
"                        n.. . . . . . n.                        "};
